# xmcd
#
# Track frame offsets: 
#        150
#        17676
#        33775
#        52457
#        70556
#        89044
#        105603
#        130318
#        147567
#        158551
#        178571
#
# Disc length: 2628 seconds
#
# Revision: 0
# Processed by: cddbd v1.5.2PL0 Copyright (c) Steve Scherf et al.
# Submitted via: ExactAudioCopyFreeDBPlugin 1.0
#
DISCID=960a420b
DTITLE=Sie Gubba - Våre beste ballader
DYEAR=2019
DGENRE=Country
TTITLE0=Vår
TTITLE1=Du e go å ha
TTITLE2=Finast jenta
TTITLE3=Der æ kjæm frå
TTITLE4=Æ å du
TTITLE5=I såmmår kjæm du att
TTITLE6=Så kom du
TTITLE7=Sånn e livet
TTITLE8=Vanlig fyr
TTITLE9=Syng på siste vers
TTITLE10=Fjellrypa
EXTD=
EXTT0=
EXTT1=
EXTT2=
EXTT3=
EXTT4=
EXTT5=
EXTT6=
EXTT7=
EXTT8=
EXTT9=
EXTT10=
PLAYORDER=
